<svg width="16" height="16" viewBox="0 0 16 16" fill="none" xmlns="http://www.w3.org/2000/svg">
<path d="M15.1248 9.49996C15.1248 8.51296 14.7226 7.60296 14.0495 6.86096C13.3661 10.348 10.1186 13 6.21855 13C6.12199 13 6.02918 12.982 5.93262 12.979C6.90387 13.617 8.14605 14 9.4998 14C9.92074 14 10.3304 13.96 10.7251 13.89L14.1873 16V12H14.1761C14.7751 11.285 15.1248 10.425 15.1248 9.49996Z" fill="#94A3B8"/>
<path d="M6.21875 0C2.85313 0 0.125 2.462 0.125 5.5C0.125 6.575 0.471875 7.574 1.0625 8.422V12L3.59281 10.458C4.38875 10.802 5.2775 11 6.21875 11C9.58438 11 12.3125 8.538 12.3125 5.5C12.3125 2.462 9.58438 0 6.21875 0Z" fill="#64748B"/>
</svg>
