<svg width="16" height="16" viewBox="0 0 16 16" fill="none" xmlns="http://www.w3.org/2000/svg">
<path fill-rule="evenodd" clip-rule="evenodd" d="M0.875 7C0.875 10.86 3.81875 14 7.4375 14C11.0562 14 14 10.86 14 7C14 3.14 11.0562 0 7.4375 0C3.81875 0 0.875 3.14 0.875 7ZM2.75 7C2.75 4.243 4.85281 2 7.4375 2C10.0222 2 12.125 4.243 12.125 7C12.125 9.757 10.0222 12 7.4375 12C4.85281 12 2.75 9.757 2.75 7Z" fill="#64748B"/>
<path d="M15.6003 14.293L13.3569 11.9C12.9716 12.429 12.5272 12.903 12.0312 13.314L14.2747 15.707C14.4575 15.902 14.6975 16 14.9375 16C15.1775 16 15.4175 15.902 15.6003 15.707C15.9669 15.316 15.9669 14.684 15.6003 14.293Z" fill="#94A3B8"/>
</svg>
