<svg width="24" height="24" viewBox="0 0 24 24" fill="none" xmlns="http://www.w3.org/2000/svg">
<path fill-rule="evenodd" clip-rule="evenodd" d="M22 5C22 6.105 21.105 7 20 7C18.895 7 18 6.105 18 5C18 3.895 18.895 3 20 3C21.105 3 22 3.895 22 5ZM22 8H21.026H18.974H18C16.895 8 16 8.895 16 10V16H18V19V21C18 21.552 18.448 22 19 22H21C21.552 22 22 21.552 22 21V19V16H24V10C24 8.895 23.105 8 22 8Z" fill="#475569"/>
<path fill-rule="evenodd" clip-rule="evenodd" d="M6 5C6 6.105 5.105 7 4 7C2.895 7 2 6.105 2 5C2 3.895 2.895 3 4 3C5.105 3 6 3.895 6 5ZM6 8H5.026H2.974H2C0.895 8 0 8.895 0 10V16H2V19V21C2 21.552 2.448 22 3 22H5C5.552 22 6 21.552 6 21V19V16H8V10C8 8.895 7.105 8 6 8Z" fill="#475569"/>
<path fill-rule="evenodd" clip-rule="evenodd" d="M9 3C9 4.657 10.343 6 12 6C13.657 6 15 4.657 15 3C15 1.343 13.657 0 12 0C10.343 0 9 1.343 9 3ZM9 23C9 23.552 9.448 24 10 24H14C14.552 24 15 23.552 15 23V17H18V11C18 9.343 16.657 8 15 8H9C7.343 8 6 9.343 6 11V17H9V23Z" fill="#94A3B8"/>
</svg>
